<svg data-v-0dd9719b="" version="1.0" xmlns="http://www.w3.org/2000/svg" xmlns:xlink="http://www.w3.org/1999/xlink" width="100%" height="100%" viewBox="0 0 340.000000 250.000000" preserveAspectRatio="xMidYMid meet" color-interpolation-filters="sRGB" style="margin: auto;"> <rect data-v-0dd9719b="" x="0" y="0" width="100%" height="100%" fill="#ffffff" fill-opacity="1" class="background"></rect> <rect data-v-0dd9719b="" x="0" y="0" width="100%" height="100%" fill="url(#watermark)" fill-opacity="1" class="watermarklayer"></rect> <g data-v-0dd9719b="" fill="#333" class="icon-text-wrapper icon-svg-group iconsvg" transform="translate(66.6882019043723,103.93583869934082)"><g class="iconsvg-imagesvg" transform="translate(0,0)"><g><rect fill="#333" fill-opacity="0" stroke-width="2" x="0" y="0" width="60" height="42.12832287146649" class="image-rect"></rect> <svg x="0" y="0" width="60" height="42.12832287146649" filtersec="colorsb253579200" class="image-svg-svg primary" style="overflow: visible;"><svg xmlns="http://www.w3.org/2000/svg" viewBox="-0.0019837021827697754 0.015816323459148407 185.19198608398438 130.0301055908203"><path d="M127.48 46.51A63.78 63.78 0 0 0 93.85 6.85 67.63 67.63 0 0 0 69.1.12a64.81 64.81 0 0 0-25.27 3.6A64.1 64.1 0 0 0 .22 63.34C-.2 84.77.13 106.2 0 127.64c0 1.91.48 2.4 2.4 2.39 20-.08 40-.14 60 0A69.63 69.63 0 0 0 96 122.2c.33-.33 1-.34 1.07-.91a4.56 4.56 0 0 0 1.79-.75 55.39 55.39 0 0 0 11.48-8.76A64.9 64.9 0 0 0 129 77.24a64.17 64.17 0 0 0-1.52-30.73z" fill="#0f54ff"></path><circle cx="121.45" cy="65.01" r="63.74" fill="#1eaaff" opacity=".4"></circle></svg></svg> <!----></g></g> <g transform="translate(61,1.464111328125)"><g data-gra="path-name" fill-rule="" class="tp-name iconsvg-namesvg" transform="translate(0,0)"><g transform="scale(0.7599999999999998)"><g><path d="M9.72 0L9.72-24.66 0.18-24.66 0.18-30.02 26.05-30.02 26.05-24.66 16.11-24.66 16.11 0 9.72 0ZM40.86-11.38L35.73-11.38 35.73 0 29.34 0 29.34-30.02 44.01-30.02Q50.31-30.02 52.78-28.39L52.78-28.39Q54.49-27.31 55.42-25.54 56.34-23.76 56.34-21.64L56.34-21.64Q56.34-17.37 54.18-15.03L54.18-15.03Q52.83-13.63 50.63-12.91L50.63-12.91Q52.38-12.29 53.28-11.59 54.18-10.89 54.9-9.54L54.9-9.54Q55.44-8.46 55.69-7.47 55.93-6.48 56.07-4.54L56.07-4.54Q56.34-1.3 56.79 0L56.79 0 49.63 0Q49.32-1.03 48.96-4.27L48.96-4.27Q48.73-6.88 48.04-8.28 47.34-9.67 45.94-10.48L45.94-10.48Q44.19-11.43 40.86-11.38L40.86-11.38ZM35.73-24.66L35.73-16.74 44.68-16.74Q46.93-16.74 47.88-17.41L47.88-17.41Q49.32-18.4 49.32-20.88L49.32-20.88Q49.32-23.63 47.16-24.39L47.16-24.39Q46.39-24.66 44.68-24.66L44.68-24.66 35.73-24.66ZM67.86 0L61.47 0 61.47-30.02 67.86-30.02 67.86 0ZM73.8-30.02L83.11-30.02 90.59-6.57 98.46-30.02 107.78-30.02 107.78 0 101.7 0 101.7-22.5 93.87 0 87.3 0 79.88-22.5 79.88 0 73.8 0 73.8-30.02ZM130.54 0L113.94 0 113.94-30.02 130.91-30.02Q134.91-30.02 136.71-29.07L136.71-29.07Q138.82-28.04 139.91-25.61L139.91-25.61Q140.67-23.94 140.67-22.14L140.67-22.14Q140.67-19.8 139.43-17.77 138.19-15.75 136.31-14.98L136.31-14.98Q140.67-13 140.67-7.92L140.67-7.92Q140.67-5 139.28-3.01L139.28-3.01Q138.06-1.3 136.17-0.65 134.28 0 130.54 0L130.54 0ZM120.33-24.66L120.33-17.68 129.01-17.68Q130.41-17.68 131.02-17.82 131.63-17.95 132.21-18.4L132.21-18.4Q133.6-19.48 133.6-21.38L133.6-21.38Q133.6-23.18 132.3-24.03L132.3-24.03Q131.35-24.66 129.15-24.66L129.15-24.66 120.33-24.66ZM120.33-12.33L120.33-5.35 129.01-5.35Q130.41-5.35 131.04-5.49 131.67-5.63 132.21-6.08L132.21-6.08Q133.6-7.15 133.6-9.04L133.6-9.04Q133.6-10.84 132.3-11.7L132.3-11.7Q131.35-12.33 129.15-12.33L129.15-12.33 120.33-12.33ZM144.99-13.14L144.99-30.02 151.33-30.02 151.33-13.14Q151.47-9.95 151.6-8.91L151.6-8.91Q151.92-6.84 153.58-6.1 155.25-5.35 159.44-5.35L159.44-5.35 165.56-5.35 165.56 0 158.76 0Q153.94 0 151.78-0.54L151.78-0.54Q146.83-1.98 145.48-6.84L145.48-6.84Q144.99-8.73 144.99-13.14L144.99-13.14ZM181.03-30.02L191.79-30.02 191.79-24.66 183.46-24.66Q180.22-24.66 178.74-24.21 177.25-23.76 176.26-22.45L176.26-22.45Q175.59-21.55 175.34-20.65 175.09-19.75 174.91-17.59L174.91-17.59 191.79-17.59 191.79-12.24 174.91-12.24Q175.27-8.37 177.21-6.86 179.14-5.35 183.78-5.35L183.78-5.35 191.79-5.35 191.79 0 183.46 0Q180.09 0 177.52-0.4L177.52-0.4Q173.47-1.08 171.09-3.96L171.09-3.96Q167.67-8.1 167.67-15.16L167.67-15.16Q167.67-22.99 172.48-27.36L172.48-27.36Q174.15-28.84 176.02-29.43 177.88-30.02 181.03-30.02L181.03-30.02Z" transform="translate(-0.18000000715255737, 30.020000457763672)"></path></g> <!----> <!----> <!----> <!----> <!----> <!----> <!----></g></g> <g data-gra="path-slogan" fill-rule="" class="tp-slogan iconsvg-slogansvg" fill="#333" transform="translate(41.82724380493164,27.815200805664062)"><!----> <!----> <g transform="scale(1, 1)"><g transform="scale(1.1600000000000001)"><path d="M7.17-6.09L7.17-6.09L6.09-6.09Q6-7.73 3.94-7.83L3.94-7.83Q2.02-7.78 2.02-6.33L2.02-6.33Q2.02-5.39 3.05-5.25L3.05-5.25L5.48-4.69Q7.41-4.22 7.41-2.34L7.41-2.34Q7.36 0.05 4.03 0.14L4.03 0.14Q2.20 0.14 1.45-0.61L1.45-0.61Q0.52-1.31 0.56-2.77L0.56-2.77L1.69-2.77Q1.73-0.80 4.03-0.75L4.03-0.75Q6.28-0.80 6.33-2.20L6.33-2.20Q6.52-3.38 4.45-3.75L4.45-3.75L2.67-4.13Q0.84-4.64 0.84-6.19L0.84-6.19Q0.98-8.72 3.84-8.81L3.84-8.81Q7.08-8.81 7.17-6.09ZM9.86-8.58L11.03-8.58L11.03-1.03L15.39-1.03L15.39 0L9.86 0L9.86-8.58ZM24.31-4.27L24.31-4.27Q24.13-7.64 21.31-7.83L21.31-7.83Q18.45-7.69 18.31-4.27L18.31-4.27Q18.45-0.94 21.31-0.80L21.31-0.80Q24.13-0.98 24.31-4.27ZM25.48-4.27L25.48-4.27Q25.20 0 21.31 0.14L21.31 0.14Q17.38 0 17.09-4.27L17.09-4.27Q17.33-8.72 21.31-8.81L21.31-8.81Q25.20-8.67 25.48-4.27ZM34.27-3.61L31.64-3.61L31.64-4.59L35.39-4.59L35.39 0L34.64 0L34.36-1.08Q33.38 0.09 31.55 0.14L31.55 0.14Q29.81 0.14 28.88-0.75L28.88-0.75Q27.47-2.06 27.52-4.36L27.52-4.36Q27.84-8.63 31.59-8.81L31.59-8.81Q34.78-8.63 35.25-6L35.25-6L34.13-6Q33.66-7.78 31.55-7.83L31.55-7.83Q28.88-7.64 28.73-4.31L28.73-4.31Q28.73-0.75 31.59-0.75L31.59-0.75Q32.63-0.75 33.38-1.31L33.38-1.31Q34.31-2.06 34.27-3.61L34.27-3.61ZM43.84 0L43-2.48L39.53-2.48L38.64 0L37.47 0L40.70-8.58L42.02-8.58L45.11 0L43.84 0ZM41.27-7.31L39.91-3.52L42.58-3.52L41.31-7.31L41.27-7.31ZM48.55-8.58L52.86-1.64L52.86-8.58L53.98-8.58L53.98 0L52.67 0L48.31-6.94L48.27-6.94L48.27 0L47.14 0L47.14-8.58L48.55-8.58Z" transform="translate(-0.5602678571428572, 8.8125)"></path></g></g></g></g></g><defs v-gra="od"></defs></svg>